<svg xmlns="http://www.w3.org/2000/svg" viewBox="0 0 32 32">
    <path d="M0 17.388c0 1.45.136 2.762.407 3.935s.647 2.193 1.127 3.06 1.09 1.626 1.83 2.284c.742.657 1.545 1.195 2.41 1.612s1.855.75 2.966 1.01c1.11.26 2.245.44 3.403.55s2.43.15 3.818.15c1.4 0 2.68-.052 3.84-.156s2.3-.287 3.41-.548 2.11-.6 2.98-1.018c.87-.42 1.68-.956 2.43-1.614s1.36-1.42 1.847-2.286.863-1.885 1.134-3.06c.27-1.172.407-2.484.407-3.933 0-2.586-.866-4.824-2.597-6.712.092-.25.18-.532.256-.85s.15-.772.22-1.36c.068-.59.04-1.27-.08-2.043s-.34-1.56-.663-2.364l-.235-.04c-.166-.03-.44-.022-.82.025s-.825.14-1.33.283c-.507.14-1.16.412-1.957.814s-1.64.902-2.525 1.51C20.75 6.22 18.66 6.01 16 6.01c-2.65 0-4.73.21-6.255.63-.89-.61-1.735-1.11-2.545-1.51s-1.453-.676-1.933-.817c-.48-.14-.928-.232-1.346-.274s-.68-.06-.79-.04-.194.032-.256.053c-.324.803-.546 1.59-.666 2.363s-.15 1.453-.08 2.04.14 1.044.218 1.36c.078.32.164.604.258.855-1.734 1.894-2.6 4.13-2.6 6.72zm3.928 3.927c0-1.502.683-2.88 2.05-4.13.407-.377.88-.66 1.424-.854s1.155-.3 1.84-.32c.682-.024 1.337-.02 1.963.018s1.398.086 2.316.15c.92.06 1.72.093 2.38.093s1.46-.03 2.38-.093c.92-.065 1.69-.114 2.32-.15s1.28-.04 1.968-.017c.683.024 1.296.134 1.84.33s1.016.474 1.423.85c1.368 1.23 2.05 2.607 2.05 4.13 0 .897-.11 1.693-.336 2.386s-.51 1.276-.86 1.746-.835.868-1.456 1.197c-.62.33-1.225.58-1.814.76s-1.348.31-2.27.41c-.924.1-1.748.16-2.47.18s-1.65.03-2.765.03-2.038-.01-2.763-.03c-.724-.02-1.55-.08-2.47-.18s-1.68-.236-2.27-.414c-.59-.178-1.194-.43-1.815-.76s-1.106-.73-1.454-1.2c-.35-.47-.638-1.05-.86-1.747s-.34-1.485-.34-2.38zM20 21c0-1.657.895-3 2-3s2 1.343 2 3-.895 3-2 3-2-1.343-2-3zM8 21c0-1.657.895-3 2-3s2 1.343 2 3-.895 3-2 3-2-1.343-2-3z"/>
</svg>
