<svg xmlns="http://www.w3.org/2000/svg" viewBox="0 0 30 30">
  <path fill="#000" fill-rule="evenodd" d="M29.556 9.5l-14-9.332c-.336-.224-.774-.224-1.11 0L.446 9.5C.168 9.688 0 10 0 10.334v9.334c0 .334.168.646.446.832l14 9.332c.168.112.362.168.554.168.192 0 .386-.056.554-.168l14-9.333c.278-.187.446-.5.446-.833v-9.334c0-.334-.168-.646-.446-.832h.002zm-14.554 8.963L9.804 15l5.198-3.465L20.2 15l-5.198 3.463zm1-8.666v-6.93L27.2 10.332l-5.198 3.465-6-4v.002zm-2 0l-6 4-5.198-3.464L14.002 2.87V9.8v-.003zM6.2 15l-4.198 2.797V12.2L6.2 15zm1.802 1.2l6 4v6.93L2.804 19.667l5.198-3.464V16.2zm8 4l6-4 5.198 3.465-11.198 7.463v-6.93.003zm7.802-5.2l4.198-2.8v5.597L23.804 15z"/>
</svg>
