<svg width="98" height="100" xmlns="http://www.w3.org/2000/svg"><g fill-rule="evenodd"><path d="m29.9 78.66.146.147c5.835-5.835 10.055-5.386 17.1 1.66L58.28 91.6c11.58 11.58 22.396 10.996 35.323-1.93l3.95-3.95-8.393-8.394-2.02 2.02c-7.317 7.316-12.433 7.406-19.435.404L54.643 66.688c-6.733-6.732-13.42-7.406-19.84-2.064l-1.256-1.257c5.476-6.643 4.938-12.837-1.57-19.345L20.26 32.307c-7.135-7.137-7.09-12.12.316-19.525l2.02-2.02-8.35-8.348-3.95 3.95c-12.97 12.97-13.69 23.564-2.378 34.875l9.65 9.65c7.047 7.046 7.496 11.355 1.706 17.145l.043.043a7.499 7.499 0 0 0 .342 10.24 7.499 7.499 0 0 0 10.24.343z"/><g transform="rotate(-45 74.315 -31.52)"><circle cx="7.5" cy="7.5" r="7.5"/><circle cx="32.5" cy="7.5" r="7.5"/><circle cx="57.5" cy="7.5" r="7.5"/></g></g></svg>
