<?xml version="1.0" standalone="no"?>
<!DOCTYPE svg PUBLIC "-//W3C//DTD SVG 20010904//EN"
 "http://www.w3.org/TR/2001/REC-SVG-20010904/DTD/svg10.dtd">
<svg version="1.0" xmlns="http://www.w3.org/2000/svg"
 width="16.000000pt" height="16.000000pt" viewBox="0 0 16.000000 16.000000"
 preserveAspectRatio="xMidYMid meet">
<metadata>
Created by potrace 1.11, written by Peter Selinger 2001-2013
</metadata>
<g transform="translate(0.000000,16.000000) scale(0.000781,-0.000781)"
fill="#000000" stroke="none">
<path d="M13017 20374 c-1 -1 -83 -4 -182 -8 -99 -4 -202 -8 -230 -11 -27 -2
-84 -7 -125 -10 -41 -3 -88 -8 -105 -10 -16 -2 -57 -7 -90 -10 -33 -3 -71 -8
-85 -10 -27 -4 -177 -25 -224 -31 -17 -2 -98 -18 -180 -35 -83 -17 -159 -32
-168 -34 -113 -23 -535 -150 -613 -185 -11 -5 -81 -35 -155 -66 -261 -111
-542 -268 -783 -436 -70 -49 -135 -95 -145 -102 -196 -158 -263 -217 -407
-362 -135 -135 -156 -159 -273 -304 -150 -185 -323 -444 -432 -645 -44 -80
-170 -333 -170 -340 0 -3 -16 -39 -35 -80 -90 -196 -222 -590 -284 -855 -26
-108 -78 -346 -84 -385 -3 -16 -12 -66 -21 -110 -8 -44 -17 -93 -20 -110 -8
-55 -18 -120 -21 -135 -11 -62 -22 -140 -30 -211 -3 -31 -7 -65 -9 -76 -2 -10
-7 -50 -11 -88 -3 -39 -8 -83 -10 -100 -5 -35 -11 -113 -29 -355 -15 -200 -19
-498 -20 -1445 l-1 -1050 -1201 -3 -1201 -2 1 -1267 1 -1266 1200 -1 1200 -1
0 -5065 0 -5065 1585 -3 1585 -2 0 5067 0 5068 1455 2 c800 1 1460 2 1465 2 7
1 10 430 10 1266 l0 1265 -1466 0 -1465 0 2 1178 c1 647 4 1209 8 1247 3 39 8
99 11 135 11 127 16 176 26 250 5 41 12 91 14 110 3 19 7 46 10 60 3 14 7 41
9 60 50 380 228 846 430 1125 69 96 95 126 202 232 232 228 477 367 787 442
134 33 145 35 262 50 261 33 682 27 925 -14 14 -2 41 -7 60 -10 68 -11 167
-29 215 -39 96 -20 248 -57 318 -78 37 -11 70 -19 72 -17 3 4 13 119 20 229 1
25 6 81 9 125 4 44 9 109 12 145 5 67 10 128 19 240 3 36 7 97 10 135 3 39 7
95 10 125 10 117 15 178 20 255 3 44 7 100 10 125 2 25 7 83 10 130 4 47 8
108 10 135 8 95 14 180 20 260 3 44 7 98 10 120 2 22 7 78 10 125 3 47 8 105
10 130 4 45 9 110 21 265 3 44 7 94 9 112 3 24 0 33 -13 37 -186 51 -300 77
-392 92 -19 3 -42 7 -50 9 -8 3 -33 7 -55 10 -22 4 -49 8 -60 9 -110 18 -196
27 -380 41 -159 12 -827 28 -838 19z"/>
</g>
</svg>
