<?xml version="1.0" standalone="no"?>
<!DOCTYPE svg PUBLIC "-//W3C//DTD SVG 20010904//EN"
 "http://www.w3.org/TR/2001/REC-SVG-20010904/DTD/svg10.dtd">
<svg version="1.0" xmlns="http://www.w3.org/2000/svg"
 width="16.000000pt" height="16.000000pt" viewBox="0 0 16.000000 16.000000"
 preserveAspectRatio="xMidYMid meet">
<metadata>
Created by potrace 1.11, written by Peter Selinger 2001-2013
</metadata>
<g transform="translate(0.000000,16.000000) scale(0.000717,-0.000717)"
fill="#000000" stroke="none">
<path d="M13127 21044 c-1 -1 -49 -5 -107 -9 -58 -3 -116 -8 -130 -10 -14 -1
-50 -6 -80 -10 -51 -6 -235 -36 -305 -50 -401 -80 -804 -253 -1103 -473 -443
-326 -739 -717 -984 -1297 -95 -227 -188 -559 -237 -850 -19 -109 -20 -120
-26 -170 -3 -27 -8 -61 -10 -75 -7 -43 -17 -142 -30 -305 -14 -189 -17 -578
-17 -2610 0 -1232 -1 -2247 -4 -2255 -3 -14 -143 -15 -1256 -15 -689 1 -1258
-1 -1264 -3 -8 -2 -11 -79 -10 -250 l1 -247 1280 -5 1280 -5 0 -5817 0 -5818
290 0 290 0 0 5820 0 5820 275 0 c151 0 894 1 1650 0 l1376 0 0 250 c-1 138
-3 251 -6 251 -3 1 -745 2 -1650 3 l-1645 1 1 2245 c0 2022 3 2429 19 2595 10
115 24 242 30 275 5 25 7 41 20 130 40 277 157 701 252 910 221 491 491 830
870 1093 328 228 679 353 1105 394 148 14 710 5 737 -12 3 -1 31 -6 61 -9 30
-3 66 -8 80 -11 14 -3 45 -8 70 -11 25 -3 52 -7 60 -9 8 -3 33 -7 55 -11 22
-3 87 -15 145 -26 58 -11 119 -21 135 -21 l30 -2 27 110 c38 152 78 329 75
331 -7 7 -247 65 -342 83 -224 41 -298 50 -550 66 -94 6 -453 13 -458 9z"/>
</g>
</svg>
