<svg width="0" height="0" style="position:absolute"><symbol viewBox="0 0 32 32" id="icon-about"><path d="M19.463 21.96c-.69-.11-.707-2.01-.707-2.01s2.03-2.01 2.473-4.713c1.19 0 1.924-2.873.733-3.884C22.013 10.29 23.493 3 16 3s-6.014 7.29-5.965 8.353c-1.19 1.01-.455 3.884.735 3.884.442 2.703 2.473 4.713 2.473 4.713s-.016 1.9-.707 2.01C10.31 22.314 2 25.98 2 30h28c0-4.02-8.312-7.685-10.538-8.04z"/></symbol><symbol viewBox="0 0 32 32" id="icon-feed"><path d="M4.26 23.467A4.267 4.267 0 0 0 0 27.72c0 2.348 1.91 4.243 4.26 4.243a4.25 4.25 0 0 0 4.264-4.244 4.265 4.265 0 0 0-4.265-4.255zM.004 10.873v6.133c3.993 0 7.75 1.562 10.577 4.39A14.898 14.898 0 0 1 14.967 32h6.16c0-11.65-9.478-21.127-21.12-21.127zM.012 0v6.136C14.255 6.136 25.848 17.74 25.848 32H32C32 14.36 17.648 0 .012 0z"/></symbol><symbol viewBox="0 0 32 32" id="icon-github"><path d="M0 17.388c0 1.45.136 2.762.407 3.935s.647 2.193 1.127 3.06 1.09 1.626 1.83 2.284c.742.657 1.545 1.195 2.41 1.612s1.855.754 2.966 1.015c1.11.26 2.245.443 3.403.548s2.43.156 3.818.156c1.4 0 2.678-.053 3.836-.157s2.295-.287 3.41-.548 2.11-.6 2.982-1.017c.87-.418 1.68-.955 2.425-1.613s1.36-1.42 1.846-2.285.862-1.886 1.133-3.06c.27-1.173.407-2.485.407-3.934 0-2.587-.867-4.825-2.598-6.713.094-.25.18-.535.258-.853s.15-.772.22-1.36c.067-.59.04-1.27-.08-2.043s-.34-1.56-.664-2.364L28.9 4.01c-.166-.032-.44-.024-.82.023s-.825.14-1.33.282c-.507.14-1.16.412-1.957.814s-1.64.903-2.527 1.51c-1.523-.42-3.615-.628-6.275-.628-2.65 0-4.734.21-6.257.626C8.846 6.032 8 5.528 7.19 5.128s-1.454-.674-1.934-.815c-.48-.14-.928-.232-1.346-.274s-.68-.055-.79-.04-.196.035-.258.056c-.323.803-.545 1.59-.665 2.363S2.05 7.872 2.12 8.46s.14 1.043.218 1.36c.078.32.164.603.258.854C.864 12.564-.002 14.802-.002 17.39zm3.928 3.927c0-1.502.683-2.88 2.05-4.13.407-.377.88-.66 1.424-.854s1.155-.3 1.84-.327c.682-.026 1.337-.02 1.963.016s1.398.085 2.316.15c.92.06 1.713.092 2.38.092s1.46-.03 2.38-.093c.917-.064 1.69-.113 2.315-.15s1.28-.04 1.964-.016c.682.026 1.295.136 1.84.33s1.015.476 1.422.852c1.368 1.23 2.05 2.608 2.05 4.13 0 .898-.11 1.694-.336 2.387s-.51 1.276-.86 1.746-.835.867-1.456 1.196c-.62.33-1.226.582-1.815.76s-1.346.315-2.27.414c-.922.1-1.746.16-2.47.18s-1.647.03-2.763.03-2.037-.01-2.762-.03c-.725-.02-1.55-.08-2.472-.18s-1.68-.237-2.27-.415c-.588-.177-1.193-.43-1.814-.76s-1.106-.727-1.455-1.196c-.35-.47-.637-1.05-.86-1.746s-.338-1.488-.338-2.385zM20 21c0-1.657.895-3 2-3s2 1.343 2 3-.895 3-2 3-2-1.343-2-3zM8 21c0-1.657.895-3 2-3s2 1.343 2 3-.895 3-2 3-2-1.343-2-3z"/></symbol><symbol viewBox="0 0 32 32" id="icon-home"><path d="M32 18.45L16 6.03 0 18.45v-5.063L16 .967l16 12.42zM28 18v12h-8v-8h-8v8H4V18l12-9z"/></symbol><symbol viewBox="0 0 32 32" id="icon-linkedin"><path d="M12 12h5.535v2.837h.08c.77-1.38 2.654-2.837 5.463-2.837C28.92 12 30 15.637 30 20.367V30h-5.77v-8.54c0-2.037-.04-4.657-3-4.657-3.005 0-3.463 2.218-3.463 4.51V30H12V12zM2 12h6v18H2V12zm6-5a3 3 0 1 1-6 0 3 3 0 0 1 6 0z"/></symbol><symbol viewBox="0 0 32 32" id="icon-quotes-left"><path d="M7.03 14c3.867 0 7 3.134 7 7s-3.133 7-7 7-7-3.134-7-7L0 20C0 12.268 6.268 6 14 6v4a9.93 9.93 0 0 0-7.07 2.93c-.365.363-.696.75-.996 1.156A7.068 7.068 0 0 1 7.03 14zm18 0c3.867 0 7 3.134 7 7s-3.133 7-7 7-7-3.134-7-7L18 20c0-7.732 6.268-14 14-14v4a9.93 9.93 0 0 0-7.07 2.93c-.365.363-.696.75-.996 1.156A7.09 7.09 0 0 1 25.03 14z"/></symbol><symbol viewBox="0 0 32 32" id="icon-quotes-right"><path d="M25 20a7 7 0 1 1 7-7l.03 1c0 7.732-6.267 14-14 14v-4a9.93 9.93 0 0 0 7.072-2.93c.364-.363.695-.75.995-1.156A7.08 7.08 0 0 1 25 20zM7 20a7 7 0 1 1 7-7l.03 1c0 7.732-6.267 14-14 14v-4a9.93 9.93 0 0 0 7.072-2.93c.364-.363.695-.75.995-1.156A7.08 7.08 0 0 1 7 20z"/></symbol><symbol viewBox="0 0 32 32" id="icon-tag"><path d="M28.994 0h-9.018c-1.653 0-3.962.956-5.13 2.125L.876 16.093a3.015 3.015 0 0 0 0 4.25l10.78 10.78a3.015 3.015 0 0 0 4.25 0l13.967-13.97c1.17-1.168 2.125-3.477 2.125-5.13V3.005A3.013 3.013 0 0 0 28.992 0zM25 10a3 3 0 1 1 0-6 3 3 0 0 1 0 6z"/></symbol><symbol viewBox="0 0 32 32" id="icon-twitter"><path d="M32 6.076a13.142 13.142 0 0 1-3.77 1.034 6.598 6.598 0 0 0 2.886-3.632c-1.27.752-2.674 1.3-4.17 1.593A6.55 6.55 0 0 0 22.156 3a6.566 6.566 0 0 0-6.565 6.565c0 .515.06 1.016.17 1.496A18.65 18.65 0 0 1 2.23 4.2a6.564 6.564 0 0 0 2.032 8.765 6.563 6.563 0 0 1-2.975-.82v.083a6.568 6.568 0 0 0 5.265 6.437 6.566 6.566 0 0 1-2.964.112 6.574 6.574 0 0 0 6.133 4.56A13.186 13.186 0 0 1 0 26.054a18.573 18.573 0 0 0 10.063 2.95c12.076 0 18.68-10.004 18.68-18.68 0-.285-.007-.568-.02-.85A13.298 13.298 0 0 0 32 6.077z"/></symbol></svg>