<svg width="0" height="0" style="position:absolute"><symbol viewBox="0 0 32 32" id="icon-about"><path d="M19.463 21.96c-.69-.11-.707-2.01-.707-2.01s2.03-2.01 2.473-4.713c1.19 0 1.923-2.873.732-3.884C22.012 10.29 23.492 3 16 3s-6.014 7.29-5.965 8.353c-1.19 1.01-.455 3.884.735 3.884.442 2.703 2.473 4.713 2.473 4.713s-.016 1.9-.707 2.01C10.31 22.314 2 25.98 2 30h28c0-4.02-8.312-7.685-10.538-8.04z"/></symbol><symbol viewBox="0 0 30 30" id="icon-codepen"><path fill-rule="evenodd" d="M29.556 9.5l-14-9.332a1 1 0 0 0-1.11 0L.446 9.5C.168 9.688 0 10 0 10.334v9.334c0 .334.168.646.446.832l14 9.332a1 1 0 0 0 1.108 0l14-9.333c.278-.187.446-.5.446-.833v-9.334c0-.334-.168-.646-.446-.832h.002zm-14.554 8.963L9.804 15l5.198-3.465L20.2 15l-5.198 3.463zm1-8.666v-6.93L27.2 10.332l-5.198 3.465-6-4v.002zm-2 0l-6 4-5.198-3.464L14.002 2.87V9.8v-.003zM6.2 15l-4.198 2.797V12.2L6.2 15zm1.802 1.2l6 4v6.93L2.804 19.667l5.198-3.464V16.2zm8 4l6-4 5.198 3.465-11.198 7.463v-6.93.003zm7.802-5.2l4.198-2.8v5.597L23.804 15z"/></symbol><symbol viewBox="0 0 32 32" id="icon-external"><path d="M6 2v24h24V2H6zm22 22H8V4h20v20zM4 28V7L2 5v25h25l-2-2H4zm7-20l5 5-6 6 3 3 6-6 5 5V8z"/></symbol><symbol viewBox="0 0 32 32" id="icon-feed"><path d="M4.26 23.467A4.267 4.267 0 0 0 0 27.72c0 2.348 1.91 4.243 4.26 4.243a4.25 4.25 0 0 0 4.264-4.244 4.265 4.265 0 0 0-4.265-4.256zM.004 10.873v6.133c3.993 0 7.75 1.562 10.577 4.39A14.898 14.898 0 0 1 14.968 32h6.16c0-11.65-9.478-21.127-21.12-21.127zM.012 0v6.136C14.255 6.136 25.848 17.74 25.848 32H32C32 14.36 17.648 0 .012 0z"/></symbol><symbol viewBox="0 0 32 32" id="icon-github"><path d="M0 17.388c0 1.45.136 2.762.407 3.935s.647 2.193 1.127 3.06 1.09 1.626 1.83 2.284c.742.657 1.545 1.195 2.41 1.612s1.855.75 2.966 1.01c1.11.26 2.245.44 3.403.55s2.43.15 3.818.15c1.4 0 2.68-.052 3.84-.156s2.3-.287 3.41-.548 2.11-.6 2.98-1.018c.87-.42 1.68-.956 2.43-1.614s1.36-1.42 1.847-2.286.863-1.885 1.134-3.06c.27-1.172.407-2.484.407-3.933 0-2.586-.866-4.824-2.597-6.712.092-.25.18-.532.256-.85s.15-.772.22-1.36c.068-.59.04-1.27-.08-2.043s-.34-1.56-.663-2.364l-.235-.04c-.166-.03-.44-.022-.82.025s-.825.14-1.33.283c-.507.14-1.16.412-1.957.814s-1.64.902-2.525 1.51C20.75 6.22 18.66 6.01 16 6.01c-2.65 0-4.73.21-6.255.63-.89-.61-1.735-1.11-2.545-1.51s-1.453-.676-1.933-.817c-.48-.14-.928-.232-1.346-.274s-.68-.06-.79-.04-.194.032-.256.053c-.324.803-.546 1.59-.666 2.363s-.15 1.453-.08 2.04.14 1.044.218 1.36c.078.32.164.604.258.855-1.734 1.894-2.6 4.13-2.6 6.72zm3.928 3.927c0-1.502.683-2.88 2.05-4.13.407-.377.88-.66 1.424-.854s1.155-.3 1.84-.32c.682-.024 1.337-.02 1.963.018s1.398.086 2.316.15c.92.06 1.72.093 2.38.093s1.46-.03 2.38-.093c.92-.065 1.69-.114 2.32-.15s1.28-.04 1.968-.017c.683.024 1.296.134 1.84.33s1.016.474 1.423.85c1.368 1.23 2.05 2.607 2.05 4.13 0 .897-.11 1.693-.336 2.386s-.51 1.276-.86 1.746-.835.868-1.456 1.197c-.62.33-1.225.58-1.814.76s-1.348.31-2.27.41c-.924.1-1.748.16-2.47.18s-1.65.03-2.765.03-2.038-.01-2.763-.03c-.724-.02-1.55-.08-2.47-.18s-1.68-.236-2.27-.414c-.59-.178-1.194-.43-1.815-.76s-1.106-.73-1.454-1.2c-.35-.47-.638-1.05-.86-1.747s-.34-1.485-.34-2.38zM20 21c0-1.657.895-3 2-3s2 1.343 2 3-.895 3-2 3-2-1.343-2-3zM8 21c0-1.657.895-3 2-3s2 1.343 2 3-.895 3-2 3-2-1.343-2-3z"/></symbol><symbol viewBox="0 0 32 32" id="icon-home"><path d="M32 18.45L16 6.03 0 18.45v-5.063L16 .967l16 12.42zM28 18v12h-8v-8h-8v8H4V18l12-9z"/></symbol><symbol viewBox="0 0 30 32" id="icon-lab"><path d="M28.76 25.14L18.874 8.67V2h1c.55 0 1-.45 1-1s-.45-1-1-1h-10c-.55 0-1 .45-1 1s.45 1 1 1h1v6.67L.99 25.14C-1.272 28.912.476 32 4.876 32h20c4.4 0 6.148-3.086 3.884-6.86zM6.406 20l6.468-10.78V2h4v7.22L23.344 20H6.406z" fill-rule="evenodd"/></symbol><symbol viewBox="0 0 32 32" id="icon-link"><path d="M13.757 19.868a1.62 1.62 0 0 1-1.149-.476c-2.973-2.973-2.973-7.81 0-10.783l6-6C20.048 1.169 21.963.376 24 .376s3.951.793 5.392 2.233c2.973 2.973 2.973 7.81 0 10.783l-2.743 2.743a1.624 1.624 0 1 1-2.298-2.298l2.743-2.743a4.38 4.38 0 0 0 0-6.187c-.826-.826-1.925-1.281-3.094-1.281s-2.267.455-3.094 1.281l-6 6a4.38 4.38 0 0 0 0 6.187 1.624 1.624 0 0 1-1.149 2.774zM8 31.625a7.575 7.575 0 0 1-5.392-2.233c-2.973-2.973-2.973-7.81 0-10.783l2.743-2.743a1.624 1.624 0 1 1 2.298 2.298l-2.743 2.743a4.38 4.38 0 0 0 0 6.187c.826.826 1.925 1.281 3.094 1.281s2.267-.455 3.094-1.281l6-6a4.38 4.38 0 0 0 0-6.187 1.624 1.624 0 1 1 2.298-2.298c2.973 2.973 2.973 7.81 0 10.783l-6 6A7.575 7.575 0 0 1 8 31.625z"/></symbol><symbol viewBox="0 0 32 32" id="icon-linkedin"><path d="M12 12h5.535v2.837h.08c.77-1.38 2.654-2.837 5.463-2.837C28.92 12 30 15.637 30 20.367V30h-5.77v-8.54c0-2.037-.04-4.657-3-4.657-3.005 0-3.463 2.218-3.463 4.51V30H12V12zM2 12h6v18H2V12zm6-5a3 3 0 1 1-6 0 3 3 0 0 1 6 0z"/></symbol><symbol viewBox="0 0 32 32" id="icon-tag"><path d="M28.994 0h-9.018c-1.653 0-3.962.956-5.13 2.125L.876 16.093a3.015 3.015 0 0 0 0 4.25l10.78 10.78a3.015 3.015 0 0 0 4.25 0l13.967-13.97c1.17-1.168 2.125-3.477 2.125-5.13V3.005A3.013 3.013 0 0 0 28.992 0zM25 10a3 3 0 1 1 0-6 3 3 0 0 1 0 6z"/></symbol><symbol viewBox="0 0 32 32" id="icon-twitter"><path d="M32 6.076a13.142 13.142 0 0 1-3.77 1.034 6.598 6.598 0 0 0 2.886-3.632c-1.27.752-2.674 1.3-4.17 1.593A6.55 6.55 0 0 0 22.156 3a6.566 6.566 0 0 0-6.565 6.565c0 .515.06 1.016.17 1.496A18.65 18.65 0 0 1 2.23 4.2a6.564 6.564 0 0 0 2.032 8.765 6.563 6.563 0 0 1-2.975-.82v.083a6.568 6.568 0 0 0 5.265 6.437 6.566 6.566 0 0 1-2.964.112 6.574 6.574 0 0 0 6.133 4.56A13.186 13.186 0 0 1 0 26.054a18.573 18.573 0 0 0 10.063 2.95c12.076 0 18.68-10.004 18.68-18.68 0-.285-.007-.568-.02-.85A13.298 13.298 0 0 0 32 6.077z"/></symbol></svg>