<svg xmlns="http://www.w3.org/2000/svg" viewBox="0 0 32 32"><path d="M0 17.388c0 1.45.136 2.762.407 3.935s.647 2.193 1.127 3.06 1.09 1.626 1.83 2.284c.742.657 1.545 1.195 2.41 1.612s1.855.755 2.966 1.016c1.11.26 2.245.443 3.403.548s2.43.156 3.818.156c1.4 0 2.677-.052 3.835-.156s2.295-.287 3.41-.548 2.11-.6 2.982-1.017c.87-.418 1.68-.955 2.425-1.613s1.36-1.42 1.846-2.285.863-1.886 1.134-3.06c.27-1.173.407-2.485.407-3.934 0-2.587-.867-4.825-2.598-6.713.094-.25.18-.535.258-.853s.15-.772.22-1.36c.067-.59.04-1.27-.08-2.043s-.34-1.56-.664-2.364L28.9 4.01c-.166-.032-.44-.024-.82.023s-.825.14-1.33.282c-.507.14-1.16.412-1.957.814s-1.64.904-2.527 1.51c-1.523-.418-3.615-.627-6.275-.627-2.65 0-4.735.21-6.258.626-.887-.606-1.734-1.11-2.543-1.51s-1.454-.674-1.934-.815c-.48-.14-.928-.232-1.346-.274s-.68-.054-.79-.038-.196.034-.258.055c-.323.803-.545 1.59-.665 2.363S2.05 7.873 2.12 8.462s.14 1.043.218 1.36c.078.32.164.603.258.854C.864 12.564-.002 14.802-.002 17.39zm3.928 3.927c0-1.502.683-2.88 2.05-4.13.407-.377.88-.66 1.424-.854s1.155-.3 1.84-.328c.682-.026 1.337-.02 1.963.016s1.398.086 2.316.15c.92.062 1.712.093 2.38.093s1.46-.03 2.378-.093c.918-.063 1.69-.112 2.316-.15s1.28-.04 1.964-.015c.683.026 1.296.136 1.84.33s1.016.476 1.423.852c1.368 1.23 2.05 2.608 2.05 4.13 0 .898-.11 1.694-.336 2.387s-.51 1.276-.86 1.746-.835.868-1.456 1.197c-.62.33-1.226.582-1.815.76s-1.346.315-2.27.414c-.922.1-1.746.16-2.47.18s-1.647.03-2.763.03-2.037-.01-2.762-.03c-.725-.02-1.55-.08-2.472-.18s-1.68-.237-2.27-.415c-.588-.177-1.193-.43-1.814-.76s-1.106-.727-1.455-1.196c-.35-.47-.636-1.05-.86-1.745s-.337-1.488-.337-2.385zM20 21c0-1.657.895-3 2-3s2 1.343 2 3-.895 3-2 3-2-1.343-2-3zM8 21c0-1.657.895-3 2-3s2 1.343 2 3-.895 3-2 3-2-1.343-2-3z" fill="#666"/></svg>
