<svg xmlns="http://www.w3.org/2000/svg" viewBox="0 0 32 32"><path d="M26.667 0H5.334C2.4 0 0 2.4 0 5.334v21.332C0 29.6 2.4 32 5.334 32h21.333C29.6 32 32 29.602 32 26.666V5.334C32 2.4 29.6 0 26.667 0zM8.717 25.977c-1.5 0-2.717-1.21-2.717-2.707 0-1.49 1.218-2.713 2.717-2.713 1.505 0 2.72 1.223 2.72 2.713 0 1.498-1.215 2.707-2.72 2.707zm6.83.023c0-2.557-.995-4.963-2.797-6.764-1.804-1.805-4.2-2.8-6.747-2.8v-3.913c7.427 0 13.473 6.045 13.473 13.477h-3.93zm6.94 0c0-9.096-7.395-16.498-16.48-16.498V5.588c11.25 0 20.406 9.16 20.406 20.412H22.49z" fill="#666"/></svg>
